<?xml version="1.0" encoding="iso-8859-1"?>
<!-- Uploaded to: SVG Repo, www.svgrepo.com, Generator: SVG Repo Mixer Tools -->
<!DOCTYPE svg PUBLIC "-//W3C//DTD SVG 1.1//EN" "http://www.w3.org/Graphics/SVG/1.1/DTD/svg11.dtd">
<svg version="1.1" id="Capa_1" xmlns="http://www.w3.org/2000/svg" xmlns:xlink="http://www.w3.org/1999/xlink" 
	 viewBox="0 0 297.5 297.5" xml:space="preserve">
<g>
	<g id="XMLID_29_">
		<g>
			<path style="fill:#983823;" d="M178.385,212.72v32.25c0,3.09-2.6,5.7-5.689,5.7h-47.9c-3.08,0-5.689-2.61-5.689-5.7v-32.25
				c0-3.08,2.609-5.689,5.689-5.689h47.9C175.785,207.03,178.385,209.64,178.385,212.72z"/>
			<path style="fill:#F0C082;" d="M165.235,24.91v6.64h-32.971v-6.64c0-3.08,2.601-5.691,5.69-5.691h21.59
				C162.625,19.22,165.235,21.83,165.235,24.91z"/>
			<path style="fill:#F0C082;" d="M209.845,191.42c3.48,4.46,5.87,13.93,4.931,19.5l-10.24,60.29c-0.62,3.7-4.61,7.07-8.36,7.07
				h-94.85c-3.75,0-7.74-3.37-8.37-7.07l-10.23-60.29c-0.94-5.57,1.45-15.04,4.931-19.5l33.26-42.58
				c6.47-8.28,11.35-22.46,11.35-32.97V97.48h32.971v18.39c0,10.51,4.88,24.689,11.35,32.97L209.845,191.42z M197.365,244.97v-32.25
				c0-13.59-11.07-24.66-24.67-24.66h-47.9c-13.6,0-24.66,11.07-24.66,24.66v32.25c0,13.601,11.061,24.67,24.66,24.67h47.9
				C186.295,269.64,197.365,258.57,197.365,244.97z"/>
			<rect x="132.265" y="50.52" style="fill:#A0AD39;" width="32.971" height="27.98"/>
			<path d="M224.795,179.75c6.8,8.7,10.53,23.47,8.68,34.35l-10.23,60.29c-2.18,12.82-14.07,22.86-27.07,22.86h-94.85
				c-13.01,0-24.9-10.04-27.07-22.86L64.025,214.1c-1.851-10.89,1.88-25.649,8.68-34.35l33.25-42.58c3.84-4.92,7.34-15.07,7.34-21.3
				V24.91c0-13.601,11.061-24.66,24.66-24.66h21.59c13.601,0,24.66,11.06,24.66,24.66v90.96c0,6.229,3.49,16.38,7.33,21.3
				L224.795,179.75z M214.775,210.92c0.939-5.57-1.45-15.04-4.931-19.5l-33.26-42.58c-6.47-8.28-11.35-22.46-11.35-32.97V97.48
				h-32.971v18.39c0,10.51-4.88,24.689-11.35,32.97l-33.26,42.58c-3.48,4.46-5.87,13.93-4.931,19.5l10.23,60.29
				c0.63,3.7,4.62,7.07,8.37,7.07h94.85c3.75,0,7.74-3.37,8.36-7.07L214.775,210.92z M165.235,78.5V50.52h-32.971V78.5H165.235z
				 M165.235,31.55v-6.64c0-3.08-2.61-5.691-5.69-5.691h-21.59c-3.09,0-5.69,2.61-5.69,5.691v6.64H165.235z"/>
			<path d="M197.365,212.72v32.25c0,13.601-11.07,24.67-24.67,24.67h-47.9c-13.6,0-24.66-11.069-24.66-24.67v-32.25
				c0-13.59,11.061-24.66,24.66-24.66h47.9C186.295,188.06,197.365,199.13,197.365,212.72z M178.385,244.97v-32.25
				c0-3.08-2.6-5.689-5.689-5.689h-47.9c-3.08,0-5.689,2.609-5.689,5.689v32.25c0,3.09,2.609,5.7,5.689,5.7h47.9
				C175.785,250.67,178.385,248.06,178.385,244.97z"/>
		</g>
		<g>
		</g>
	</g>
</g>
</svg>