<?xml version="1.0" encoding="iso-8859-1"?>
<!-- Uploaded to: SVG Repo, www.svgrepo.com, Generator: SVG Repo Mixer Tools -->
<svg fill="#000000" height="800px" width="800px" version="1.1" id="Layer_1" xmlns="http://www.w3.org/2000/svg" xmlns:xlink="http://www.w3.org/1999/xlink" 
	 viewBox="0 0 512 512" xml:space="preserve">
<g transform="translate(1 1)">
	<g>
		<g>
			<path d="M383,33.133H127c-5.12,0-8.533,3.413-8.533,8.533v256c0,5.12,3.413,8.533,8.533,8.533h256
				c5.12,0,8.533-3.413,8.533-8.533v-256C391.533,36.547,388.12,33.133,383,33.133z M374.467,289.133H135.533V50.2h238.933V289.133z
				"/>
			<path d="M246.467,177.637v68.284c-10.65-1.381-19.848-5.345-25.6-11.209v-22.38c0-5.12-3.413-8.533-8.533-8.533
				s-8.533,3.413-8.533,8.533v24.427c-0.054,0.568-0.052,1.143,0,1.713v25.06c0,5.12,3.413,8.533,8.533,8.533
				s8.533-3.413,8.533-8.533v-7.945c7.352,3.95,16.029,6.543,25.6,7.509v8.97c0,5.12,3.413,8.533,8.533,8.533
				c5.12,0,8.533-3.413,8.533-8.533v-9.096c26.196-3.398,51.2-22.153,51.2-50.637c0-28.484-25.004-47.239-51.2-50.637V93.374
				c11.005,1.343,19.877,5.319,25.6,11.232V127c0,5.12,3.413,8.533,8.533,8.533S306.2,132.12,306.2,127v-24.427
				c0.054-0.568,0.052-1.144,0-1.713V75.8c0-5.12-3.413-8.533-8.533-8.533s-8.533,3.413-8.533,8.533v7.576
				c-7.352-3.907-16.029-6.303-25.6-7.182v-8.928c0-5.12-3.413-8.533-8.533-8.533c-5.12,0-8.533,3.413-8.533,8.533v9.096
				c-26.196,3.398-51.2,22.153-51.2,50.637C195.267,155.484,220.271,174.239,246.467,177.637z M297.667,212.333
				c0,18.382-16.474,30.42-34.133,33.401v-66.759C281.193,182.117,297.667,194.687,297.667,212.333z M246.467,93.642v66.759
				c-17.66-2.981-34.133-15.019-34.133-33.401C212.333,109.353,228.807,96.784,246.467,93.642z"/>
			<path d="M127,357.4h93.867c5.12,0,8.533-3.413,8.533-8.533s-3.413-8.533-8.533-8.533H127c-5.12,0-8.533,3.413-8.533,8.533
				S121.88,357.4,127,357.4z"/>
			<path d="M314.733,357.4c5.12,0,8.533-3.413,8.533-8.533s-3.413-8.533-8.533-8.533H255c-5.12,0-8.533,3.413-8.533,8.533
				S249.88,357.4,255,357.4H314.733z"/>
			<path d="M383,340.333h-34.133c-5.12,0-8.533,3.413-8.533,8.533s3.413,8.533,8.533,8.533H383c5.12,0,8.533-3.413,8.533-8.533
				S388.12,340.333,383,340.333z"/>
			<path d="M220.867,408.6H127c-5.12,0-8.533,3.413-8.533,8.533s3.413,8.533,8.533,8.533h93.867c5.12,0,8.533-3.413,8.533-8.533
				S225.987,408.6,220.867,408.6z"/>
			<path d="M314.733,408.6H255c-5.12,0-8.533,3.413-8.533,8.533s3.413,8.533,8.533,8.533h59.733c5.12,0,8.533-3.413,8.533-8.533
				S319.853,408.6,314.733,408.6z"/>
			<path d="M383,408.6h-34.133c-5.12,0-8.533,3.413-8.533,8.533s3.413,8.533,8.533,8.533H383c5.12,0,8.533-3.413,8.533-8.533
				S388.12,408.6,383,408.6z"/>
			<path d="M383,374.467h-76.8c-5.12,0-8.533,3.413-8.533,8.533s3.413,8.533,8.533,8.533H383c5.12,0,8.533-3.413,8.533-8.533
				S388.12,374.467,383,374.467z"/>
			<path d="M280.6,383c0-5.12-3.413-8.533-8.533-8.533h-85.333c-5.12,0-8.533,3.413-8.533,8.533s3.413,8.533,8.533,8.533h85.333
				C277.187,391.533,280.6,388.12,280.6,383z"/>
			<path d="M127,391.533h25.6c5.12,0,8.533-3.413,8.533-8.533s-3.413-8.533-8.533-8.533H127c-5.12,0-8.533,3.413-8.533,8.533
				S121.88,391.533,127,391.533z"/>
			<path d="M400.067-1H109.933c-14.507,0-25.6,11.093-25.6,25.6v477.867c0,5.12,3.413,8.533,8.533,8.533h8.533
				c2.56,0,4.267-0.853,5.973-2.56L127,488.813l19.627,19.627c3.413,3.413,8.533,3.413,11.947,0l19.627-19.627l19.627,19.627
				c3.413,3.413,8.533,3.413,11.947,0l19.627-19.627l19.627,19.627c3.413,3.413,8.533,3.413,11.947,0l19.627-19.627l19.627,19.627
				c3.413,3.413,8.533,3.413,11.947,0l19.627-19.627l19.627,19.627c3.413,3.413,8.533,3.413,11.947,0L383,488.813l19.627,19.627
				c1.707,1.707,3.413,2.56,5.973,2.56h8.533c5.12,0,8.533-3.413,8.533-8.533V24.6C425.667,10.093,414.573-1,400.067-1z
				 M408.6,490.52l-19.627-19.627c-1.707-1.707-3.413-2.56-5.973-2.56s-4.267,0.853-5.973,2.56L357.4,490.52l-19.627-19.627
				c-3.413-3.413-8.533-3.413-11.947,0L306.2,490.52l-19.627-19.627c-3.413-3.413-8.533-3.413-11.947,0L255,490.52l-19.627-19.627
				c-3.413-3.413-8.533-3.413-11.947,0L203.8,490.52l-19.627-19.627c-3.413-3.413-8.533-3.413-11.947,0L152.6,490.52l-19.627-19.627
				c-3.413-3.413-8.533-3.413-11.947,0L101.4,490.52V24.6c0-5.12,3.413-8.533,8.533-8.533h290.133c5.12,0,8.533,3.413,8.533,8.533
				V490.52z"/>
		</g>
	</g>
</g>
</svg>