<?xml version="1.0" encoding="iso-8859-1"?>
<!-- Uploaded to: SVG Repo, www.svgrepo.com, Generator: SVG Repo Mixer Tools -->
<svg height="800px" width="800px" version="1.1" id="Layer_1" xmlns="http://www.w3.org/2000/svg" xmlns:xlink="http://www.w3.org/1999/xlink" 
	 viewBox="0 0 512 512" xml:space="preserve">
<path style="fill:#2D527C;" d="M331.892,512H142.001c-32.008,0-58.049-26.041-58.049-58.047V290.686
	c0-84.361,68.633-152.993,152.993-152.993c26.342,0,52.324,6.81,75.137,19.693c7.357,4.155,9.954,13.488,5.798,20.845
	c-4.155,7.356-13.485,9.954-20.845,5.798c-18.232-10.295-39.01-15.738-60.09-15.738c-67.488,0-122.395,54.906-122.395,122.395
	v163.267c0,15.136,12.314,27.449,27.45,27.449h189.891c15.136,0,27.449-12.313,27.449-27.449V290.686
	c0-11.211-1.512-22.31-4.493-32.987c-2.272-8.138,2.485-16.577,10.622-18.85c8.142-2.272,16.577,2.485,18.85,10.622
	c3.728,13.356,5.619,27.222,5.619,41.215v163.267C389.94,485.961,363.899,512,331.892,512z"/>
<path style="fill:#CEE8FA;" d="M236.947,152.992L236.947,152.992c16.095,0,31.541,2.771,45.898,7.846V92.881h-91.796v67.957
	C205.406,155.763,220.852,152.992,236.947,152.992z"/>
<g>
	<path style="fill:#2D527C;" d="M191.05,176.137c-3.124,0-6.216-0.956-8.834-2.807c-4.056-2.869-6.467-7.526-6.467-12.492V92.881
		c0-8.45,6.85-15.299,15.299-15.299h91.796c8.45,0,15.299,6.85,15.299,15.299v67.957c0,4.966-2.411,9.625-6.467,12.492
		c-4.054,2.869-9.251,3.586-13.932,1.932c-13.086-4.625-26.811-6.972-40.799-6.972s-27.713,2.345-40.799,6.972
		C194.488,175.849,192.764,176.137,191.05,176.137z M206.348,108.18v32.58c20.048-4.079,41.149-4.08,61.197,0v-32.58H206.348z"/>
	<path style="fill:#2D527C;" d="M236.947,106.65c-8.45,0-15.299-6.85-15.299-15.299V15.299c0-8.45,6.85-15.299,15.299-15.299
		s15.299,6.85,15.299,15.299v76.051C252.246,99.801,245.395,106.65,236.947,106.65z"/>
	<path style="fill:#2D527C;" d="M385.34,61.2c-3.165,0-6.357-0.978-9.095-3.006l-37.251-27.595H201.758
		c-8.45,0-15.299-6.85-15.299-15.299S193.309,0,201.758,0h142.284c3.28,0,6.472,1.054,9.108,3.006l41.308,30.602
		c6.79,5.029,8.216,14.611,3.187,21.401C394.643,59.06,390.021,61.2,385.34,61.2z"/>
</g>
<path style="fill:#CEE8FA;" d="M412.749,168.689c0,15.131-12.265,27.397-27.397,27.397s-27.397-12.265-27.397-27.397
	s27.397-49.61,27.397-49.61S412.749,153.558,412.749,168.689z"/>
<path style="fill:#2D527C;" d="M385.352,211.385c-23.543,0-42.696-19.153-42.696-42.696c0-18.474,21.482-47.504,30.718-59.127
	c2.902-3.652,7.313-5.782,11.978-5.782c4.665,0,9.076,2.13,11.978,5.782c9.236,11.624,30.718,40.653,30.718,59.127
	C428.048,192.232,408.895,211.385,385.352,211.385z M385.357,145.194c-6.846,10.42-11.848,19.9-12.106,23.596
	c0.002,6.568,5.43,11.996,12.1,11.996c6.671,0,12.097-5.427,12.097-12.097C397.192,165.045,392.197,155.594,385.357,145.194z"/>
<path style="fill:#CEE8FA;" d="M160.45,304.965v130.539h152.993V304.965H160.45z M204.431,388.339
	c-21.756,0-39.391-17.636-39.391-39.391s17.636-39.391,39.391-39.391s39.391,17.637,39.391,39.391
	C243.822,370.703,226.187,388.339,204.431,388.339z"/>
<g>
	<path style="fill:#2D527C;" d="M313.444,450.803H160.45c-8.45,0-15.299-6.849-15.299-15.299V304.965
		c0-8.45,6.85-15.299,15.299-15.299h152.993c8.45,0,15.299,6.85,15.299,15.299v130.539
		C328.743,443.953,321.892,450.803,313.444,450.803z M175.75,420.204h122.395v-99.94h-47.162c5.16,8.344,8.141,18.173,8.141,28.683
		c0,30.157-24.534,54.691-54.691,54.691c-10.511,0-20.339-2.98-28.683-8.141L175.75,420.204L175.75,420.204z M204.431,324.854
		c-13.284,0-24.093,10.807-24.093,24.093s10.807,24.092,24.093,24.092s24.092-10.807,24.092-24.092
		C228.523,335.663,217.716,324.854,204.431,324.854z"/>
	<path style="fill:#2D527C;" d="M236.947,320.264c-8.45,0-15.299-6.85-15.299-15.299v-79.563c0-8.45,6.85-15.299,15.299-15.299
		s15.299,6.85,15.299,15.299v79.563C252.246,313.415,245.395,320.264,236.947,320.264z"/>
</g>
</svg>