<?xml version="1.0" encoding="iso-8859-1"?>
<!-- Uploaded to: SVG Repo, www.svgrepo.com, Generator: SVG Repo Mixer Tools -->
<svg version="1.1" id="Layer_1" xmlns="http://www.w3.org/2000/svg" xmlns:xlink="http://www.w3.org/1999/xlink" 
	 viewBox="0 0 511.999 511.999" xml:space="preserve">
<rect x="154.124" y="252.997" style="fill:#CEE8FA;" width="203.734" height="109.015"/>
<g>
	<path style="fill:#2D527C;" d="M357.867,164.302c-7.62,0-13.799,6.179-13.799,13.799v61.091H167.93v-61.091
		c0-12.134,9.871-22.004,22.004-22.004h23.291c7.62,0,13.799-6.179,13.799-13.799V42.826c0-7.62-6.179-13.799-13.799-13.799h-15.873
		c-7.62,0-13.799,6.179-13.799,13.799s6.179,13.799,13.799,13.799h2.074v71.873h-9.491c-27.352,0-49.603,22.251-49.603,49.603v74.89
		v109.015v102.237c0,26.333,21.422,47.755,47.754,47.755c7.62,0,13.799-6.179,13.799-13.799s-6.179-13.799-13.799-13.799
		c-11.114,0-20.155-9.043-20.155-20.157v-88.437h176.139v88.437c0,11.115-9.043,20.157-20.155,20.157
		c-11.115,0-20.157-9.043-20.157-20.157c0-7.62-6.179-13.799-13.799-13.799s-13.799,6.179-13.799,13.799
		c0,11.115-9.043,20.157-20.157,20.157c-11.114,0-20.157-9.043-20.157-20.157c0-7.62-6.179-13.799-13.799-13.799
		s-13.799,6.179-13.799,13.799c0,26.333,21.422,47.755,47.755,47.755c13.271,0,25.293-5.44,33.956-14.208
		c8.663,8.768,20.685,14.208,33.956,14.208c26.332,0,47.754-21.422,47.754-47.755V362.007V252.992v-74.89
		C371.666,170.481,365.488,164.302,357.867,164.302z M167.93,348.209v-81.416h176.139v81.416H167.93z"/>
	<path style="fill:#2D527C;" d="M298.772,156.097c7.62,0,13.799-6.179,13.799-13.799V56.626h2.074
		c7.62,0,13.799-6.179,13.799-13.799s-6.179-13.799-13.799-13.799h-15.873c-7.62,0-13.799,6.179-13.799,13.799v99.471
		C284.973,149.919,291.152,156.097,298.772,156.097z"/>
	<path style="fill:#2D527C;" d="M255.999,143.973c-7.62,0-13.799-6.179-13.799-13.799v-10.119c0-7.62,6.179-13.799,13.799-13.799
		s13.799,6.179,13.799,13.799v10.119C269.798,137.793,263.62,143.973,255.999,143.973z"/>
	<path style="fill:#2D527C;" d="M255.999,37.718c-7.62,0-13.799-6.179-13.799-13.799V13.799c0-7.62,6.179-13.799,13.799-13.799
		s13.799,6.179,13.799,13.799v10.119C269.798,31.538,263.62,37.718,255.999,37.718z"/>
	<path style="fill:#2D527C;" d="M255.999,223.329c-7.62,0-13.799-6.179-13.799-13.799v-10.12c0-7.62,6.179-13.799,13.799-13.799
		s13.799,6.179,13.799,13.799v10.12C269.798,217.149,263.62,223.329,255.999,223.329z"/>
	<path style="fill:#2D527C;" d="M311.196,223.329c-7.62,0-13.799-6.179-13.799-13.799v-10.12c0-7.62,6.179-13.799,13.799-13.799
		c7.62,0,13.799,6.179,13.799,13.799v10.12C324.995,217.149,318.817,223.329,311.196,223.329z"/>
	<path style="fill:#2D527C;" d="M200.801,223.329c-7.62,0-13.799-6.179-13.799-13.799v-10.12c0-7.62,6.179-13.799,13.799-13.799
		s13.799,6.179,13.799,13.799v10.12C214.601,217.149,208.423,223.329,200.801,223.329z"/>
</g>
</svg>