<?xml version="1.0" encoding="iso-8859-1"?>
<!-- Uploaded to: SVG Repo, www.svgrepo.com, Generator: SVG Repo Mixer Tools -->
<svg height="800px" width="800px" version="1.1" id="Layer_1" xmlns="http://www.w3.org/2000/svg" xmlns:xlink="http://www.w3.org/1999/xlink" 
	 viewBox="0 0 512 512" xml:space="preserve">
<path style="fill:#FFC477;" d="M194.571,438.939l-60.189-308.303c-2.45-12.547,1.982-25.45,11.623-33.844
	c9.641-8.394,23.03-11.01,35.122-6.857L480.24,192.654c12.09,4.152,21.048,14.44,23.499,26.988
	c2.449,12.547-1.982,25.45-11.622,33.844L253.603,461.164c-0.017,0.012-0.032,0.026-0.053,0.046
	c-14.907,12.98-37.508,11.416-50.487-3.489C198.271,452.219,195.461,445.67,194.571,438.939z"/>
<g>
	<path style="fill:#FFB655;" d="M276.453,441.268l131.712-114.684l-39.064-67.66c0,0,4.172-33.657-17.008-76.229l-24.519-42.466
		L181.126,89.937c-12.091-4.154-25.481-1.538-35.122,6.857c-9.641,8.395-14.073,21.297-11.622,33.844l60.578,310.632h81.492V441.268
		z"/>
	<path style="fill:#FFB655;" d="M412.646,229.776c-1.998,0-3.954-0.811-5.374-2.22c-1.419-1.419-2.231-3.376-2.231-5.384
		c0-1.997,0.811-3.964,2.231-5.374c1.418-1.419,3.375-2.231,5.374-2.231c2.006,0,3.964,0.811,5.384,2.231
		c1.41,1.419,2.22,3.376,2.22,5.374c0,2.007-0.811,3.964-2.22,5.384C416.611,228.965,414.653,229.776,412.646,229.776z"/>
	<path style="fill:#FFB655;" d="M459.285,237.38c-1.998,0-3.954-0.811-5.374-2.22c-1.419-1.419-2.231-3.376-2.231-5.384
		c0-1.997,0.811-3.964,2.231-5.374c1.418-1.419,3.375-2.231,5.374-2.231c2.006,0,3.964,0.811,5.384,2.231
		c1.41,1.419,2.22,3.376,2.22,5.374c0,2.007-0.811,3.964-2.22,5.384C463.249,236.569,461.291,237.38,459.285,237.38z"/>
	<path style="fill:#FFB655;" d="M427.855,271.215c-1.998,0-3.954-0.811-5.374-2.22c-1.419-1.419-2.231-3.376-2.231-5.384
		c0-1.997,0.811-3.964,2.231-5.374c1.418-1.419,3.375-2.23,5.374-2.23c2.006,0,3.964,0.811,5.384,2.23
		c1.41,1.419,2.22,3.376,2.22,5.374c0,2.008-0.811,3.964-2.22,5.384C431.819,270.403,429.861,271.215,427.855,271.215z"/>
</g>
<path style="fill:#FFDAAA;" d="M13.534,355.327L170.595,83.289c6.391-11.07,18.207-17.893,30.99-17.893
	c12.783,0,24.599,6.819,30.99,17.893l158.131,273.888c6.391,11.07,6.391,24.712,0,35.785c-6.391,11.07-18.207,17.893-30.99,17.893
	H43.459c-0.021-0.002-0.042-0.002-0.07,0c-19.765-0.001-35.785-16.022-35.785-35.786C7.604,367.771,9.785,360.987,13.534,355.327z"
	/>
<g>
	<path style="fill:#FFC477;" d="M319.061,324.742c-1.998,0-3.954-0.811-5.374-2.22c-1.419-1.419-2.231-3.376-2.231-5.384
		c0-1.997,0.811-3.964,2.231-5.374c1.418-1.419,3.375-2.231,5.374-2.231c2.006,0,3.964,0.811,5.384,2.231
		c1.41,1.419,2.22,3.376,2.22,5.374c0,2.007-0.811,3.964-2.22,5.384C323.025,323.929,321.067,324.742,319.061,324.742z"/>
	<path style="fill:#FFC477;" d="M82.935,389.816c-1.998,0-3.954-0.811-5.374-2.22c-1.419-1.419-2.231-3.376-2.231-5.384
		c0-1.997,0.811-3.964,2.231-5.374c1.418-1.419,3.375-2.231,5.374-2.231c2.006,0,3.964,0.811,5.384,2.231
		c1.41,1.419,2.22,3.376,2.22,5.374c0,2.007-0.811,3.964-2.22,5.384C86.899,389.005,84.941,389.816,82.935,389.816z"/>
	<path style="fill:#FFC477;" d="M126.115,357.448c-1.998,0-3.954-0.811-5.374-2.22c-1.419-1.419-2.231-3.376-2.231-5.384
		c0-1.997,0.811-3.964,2.231-5.374c1.418-1.419,3.375-2.231,5.374-2.231c2.006,0,3.964,0.811,5.384,2.231
		c1.41,1.419,2.22,3.376,2.22,5.374c0,2.007-0.811,3.964-2.22,5.384C130.079,356.637,128.122,357.448,126.115,357.448z"/>
	<circle style="fill:#FFC477;" cx="267.936" cy="325.717" r="16.183"/>
	<circle style="fill:#FFC477;" cx="319.056" cy="366.029" r="16.183"/>
</g>
<path style="fill:#A4E276;" d="M252.829,71.597c-10.534-18.249-30.171-29.585-51.243-29.585s-40.707,11.336-51.241,29.584
	L58.531,231.021c0,0-11.382,20.056-11.382,44.025v37.681c0,16.034,13.12,29.154,29.154,29.154c0,0,29.154,1.859,29.154-29.154
	v-26.154c0-16.034,13.12-29.154,29.154-29.154c16.033,0,29.152,13.117,29.154,29.151v98.305c0,29.154,29.154,29.154,29.154,29.154
	c16.034,0,29.154-13.12,29.154-29.154V246.353c0-16.034,13.12-29.154,29.154-29.154c28.019,0,29.154,28.09,29.154,28.09v14.878
	c0,16.034,13.12,29.154,29.154,29.154c16.034,0,29.154-13.12,29.154-29.154v-11.72c-0.19-28.33-12.984-50.629-13.005-50.667
	L252.829,71.597z"/>
<g>
	<path style="fill:#7ED63E;" d="M83.649,298.431c0-23.97,11.382-44.025,11.382-44.025L186.844,94.98
		c24.211-36.663,58.959-29.197,62.697-28.453c-11.04-15.254-28.91-24.514-47.955-24.514c-21.072,0-40.707,11.336-51.241,29.584
		L58.531,231.021c0,0-11.382,20.056-11.382,44.025v37.681c0,16.034,13.12,29.154,29.154,29.154c0,0,3.36,0.211,7.796-0.718
		C83.809,339.52,83.649,298.431,83.649,298.431z"/>
	<path style="fill:#7ED63E;" d="M250.345,143.334l-16.92-29.304c-2.1-3.637-0.854-8.287,2.783-10.387
		c3.635-2.099,8.287-0.855,10.387,2.783l16.92,29.304c2.1,3.637,0.924,8.414-2.783,10.387
		C256,148.636,251.754,145.774,250.345,143.334z"/>
	<path style="fill:#7ED63E;" d="M262.068,163.639l-1.43-2.476c-2.1-3.637-0.854-8.287,2.783-10.387
		c3.636-2.099,8.286-0.855,10.387,2.783l1.43,2.476c2.1,3.637,0.894,8.359-2.783,10.387
		C267.938,168.913,263.477,166.08,262.068,163.639z"/>
</g>
<path d="M437.822,290.679l-7.984,6.952c-3.167,2.759-3.453,7.523-0.741,10.728c3.827,4.524,9.288,1.996,10.728,0.741l7.984-6.952
	c3.167-2.759,3.499-7.561,0.741-10.728C445.79,288.251,440.986,287.921,437.822,290.679z"/>
<path d="M511.201,218.185c-2.963-15.165-13.88-27.703-28.493-32.722l-193.78-66.547l-29.515-51.121
	c-11.887-20.595-34.046-33.389-57.828-33.389c-23.78,0-45.939,12.793-57.83,33.394L51.918,227.267
	c-0.506,0.891-12.373,22.098-12.373,47.78v20.021L7.062,351.331C2.44,358.389,0,366.591,0,375.067
	c0,23.925,19.463,43.389,43.389,43.389c0.021,0,0.046,0,0.07,0h134.026c1.914,0.794,3.835,1.42,5.71,1.898l3.87,19.824
	c1.153,8.358,4.698,16.147,10.262,22.537c8.567,9.84,20.627,14.879,32.751,14.878c10.107-0.001,20.26-3.504,28.463-10.647
	c0.006-0.005,0.011-0.009,0.016-0.014c0.013-0.011,0.024-0.021,0.036-0.031l55.273-48.128l45.848-0.317
	c15.451,0,29.849-8.313,37.576-21.695c7.725-13.381,7.725-30.007,0-43.388l-2.781-4.817l27.187-23.673
	c3.167-2.758,3.499-7.56,0.741-10.728c-2.76-3.168-7.563-3.5-10.728-0.741l-24.948,21.723l-40.746-70.572
	c0.173-1.444,3.515-38.622-13.751-70.59l-31.757-55.003l177.26,60.873c9.491,3.26,16.582,11.403,18.506,21.254
	c1.922,9.849-1.585,20.062-9.152,26.652l-30.743,26.768c-3.167,2.758-3.499,7.56-0.741,10.728c1.504,1.727,3.614,2.611,5.738,2.611
	c1.771,0,3.551-0.614,4.99-1.87l30.743-26.768C508.763,249.075,514.163,233.351,511.201,218.185z M43.389,403.248
	c-15.539,0-28.181-12.641-28.181-28.181c0-5.561,1.613-10.935,4.666-15.54c0.086-0.131,21.13-36.571,21.13-36.571
	c4.428,15.25,18.481,26.448,35.122,26.528c2.303,0.078,16.256,0.202,26.449-9.36c6.958-6.527,10.486-15.745,10.486-27.396v-26.154
	c0-11.883,9.667-21.55,21.55-21.55c11.882,0,21.548,9.666,21.55,21.547v98.305c0,7.457,1.589,13.499,4.155,18.372H43.459
	C43.436,403.247,43.41,403.247,43.389,403.248z M248.609,455.431c-0.018,0.015-0.035,0.03-0.053,0.046
	c-11.72,10.203-29.555,8.97-39.759-2.749c-3.652-4.192-5.964-9.304-6.688-14.784c-0.021-0.154-0.046-0.308-0.075-0.46l-3.189-16.335
	c3.15-0.513,6.163-1.431,8.993-2.693h83.234L248.609,455.431z M331.082,248.447v11.72c0,11.883-9.667,21.55-21.55,21.55
	s-21.55-9.667-21.55-21.55v-14.878c0-0.102,0.718-35.693-36.758-35.693c-20.268,0-36.758,16.49-36.758,36.757v56.646
	c0,4.201,3.404,7.604,7.604,7.604s7.604-3.404,7.604-7.604v-56.646c0-11.883,9.667-21.549,21.55-21.549
	c22.521,0,21.493,19.962,21.55,20.704v14.659c0,20.268,16.49,36.758,36.758,36.758c11.91,0,22.51-5.698,29.232-14.507l45.358,78.559
	c5.017,8.69,5.017,19.49,0,28.181c-5.018,8.691-14.37,14.09-24.405,14.09H224.733c3.136-5.41,4.942-11.682,4.942-18.372v-58.051
	c0-4.2-3.404-7.604-7.604-7.604s-7.604,3.404-7.604,7.604v58.051c0,11.883-9.666,21.55-21.549,21.55
	c-0.055,0-5.738-0.122-11.176-2.842c-6.981-3.49-10.373-9.609-10.373-18.708v-98.306c-0.003-20.266-16.493-36.754-36.758-36.754
	c-20.268,0-36.758,16.49-36.758,36.758v26.154c0,7.234-1.887,12.695-5.608,16.234c-6.026,5.732-15.418,5.332-15.458,5.331
	c-0.161-0.011-0.322-0.016-0.485-0.016c-11.883,0-21.55-9.666-21.55-21.549v-37.681c0-21.553,10.294-40.101,10.368-40.232
	L156.93,75.398c9.182-15.904,26.293-25.783,44.656-25.783c18.366,0,35.477,9.879,44.658,25.784l72.835,126.151
	C319.197,201.758,330.909,222.615,331.082,248.447z"/>
</svg>